<svg xmlns="http://www.w3.org/2000/svg" xmlns:xlink="http://www.w3.org/1999/xlink" width="200" zoomAndPan="magnify" viewBox="0 0 150 74.999997" height="100" preserveAspectRatio="xMidYMid meet" version="1.0"><defs><g/><clipPath id="a856530958"><path d="M 103 27 L 147.722656 27 L 147.722656 46 L 103 46 Z M 103 27 " clip-rule="nonzero"/></clipPath><clipPath id="5f829f54a9"><path d="M 115 39 L 147.722656 39 L 147.722656 71.25 L 115 71.25 Z M 115 39 " clip-rule="nonzero"/></clipPath></defs><path fill="#be123d" d="M 99.84375 33.617188 C 97.976562 26.78125 100.804688 14.769531 90.238281 17.539062 L 74.058594 23.265625 C 56.691406 29.417969 74.535156 32.523438 71.5 33.992188 C 74.386719 33.777344 99.84375 33.617188 99.84375 33.617188 Z M 99.84375 33.617188 " fill-opacity="1" fill-rule="nonzero"/><g clip-path="url(#a856530958)"><path fill="#be123d" d="M 147.785156 45.691406 L 147.785156 42.878906 C 147.785156 42.878906 143.359375 30.332031 126.234375 27.785156 C 111.375 25.578125 103.007812 38.53125 103.007812 38.53125 L 110.441406 43.132812 C 110.441406 43.132812 115.457031 35.3125 126.417969 34.949219 C 142.363281 34.417969 147.785156 45.691406 147.785156 45.691406 Z M 147.785156 45.691406 " fill-opacity="1" fill-rule="nonzero"/></g><g clip-path="url(#5f829f54a9)"><path fill="#be123d" d="M 126.847656 39.03125 C 138.21875 39.03125 147.433594 46.234375 147.433594 55.117188 C 147.433594 64.003906 138.214844 71.203125 126.847656 71.203125 C 122.476562 71.203125 118.425781 70.140625 115.089844 68.324219 C 117.675781 69.355469 120.601562 69.933594 123.699219 69.933594 C 134.171875 69.933594 142.664062 63.300781 142.664062 55.117188 C 142.664062 46.933594 134.171875 40.300781 123.699219 40.300781 C 120.59375 40.300781 117.65625 40.882812 115.070312 41.917969 C 118.40625 40.097656 122.46875 39.03125 126.847656 39.03125 Z M 126.847656 39.03125 " fill-opacity="1" fill-rule="evenodd"/></g><path fill="#be123d" d="M 26.613281 39.175781 C 15.097656 39.175781 5.757812 46.097656 5.757812 54.632812 C 5.757812 63.167969 15.09375 70.089844 26.613281 70.089844 C 31.039062 70.089844 35.144531 69.066406 38.523438 67.324219 C 35.90625 68.3125 32.9375 68.867188 29.800781 68.867188 C 19.191406 68.867188 10.589844 62.496094 10.589844 54.632812 C 10.589844 46.769531 19.191406 40.398438 29.800781 40.398438 C 32.949219 40.398438 35.921875 40.957031 38.542969 41.953125 C 35.164062 40.203125 31.050781 39.175781 26.613281 39.175781 Z M 26.613281 39.175781 " fill-opacity="1" fill-rule="evenodd"/><path fill="#be123d" d="M 125.097656 55.453125 L 130.046875 55.945312 L 102.402344 12.378906 L 72.871094 6.976562 L 63.71875 8.519531 L 98.972656 14.691406 L 125.097656 55.457031 Z M 125.097656 55.453125 " fill-opacity="1" fill-rule="nonzero"/><path fill="#be123d" d="M 123.355469 10.503906 L 122.230469 22.816406 C 122.230469 22.816406 108.671875 17.882812 109.359375 12.410156 C 110.019531 7.179688 123.738281 5.824219 123.738281 5.824219 L 123.351562 10.503906 Z M 123.355469 10.503906 " fill-opacity="1" fill-rule="nonzero"/><path fill="#be123d" d="M 67.957031 34.875 L 67.957031 33.152344 L 61.652344 25.570312 C 55.328125 43.84375 2.25 3.792969 6.988281 30.394531 C 6.988281 30.394531 48.195312 37.976562 50.71875 37.976562 C 53.242188 37.976562 67.957031 35.21875 67.957031 34.875 Z M 67.957031 34.875 " fill-opacity="1" fill-rule="nonzero"/><g fill="#be123d" fill-opacity="1"><g transform="translate(14.987494, 60.699991)"><g><path d="M 10.890625 -2.734375 L 12.453125 -0.53125 C 12.515625 -0.445312 12.546875 -0.363281 12.546875 -0.28125 C 12.546875 -0.09375 12.421875 0 12.171875 0 L 9.046875 0 C 8.835938 0 8.660156 -0.09375 8.515625 -0.28125 L 4.640625 -5.78125 L 4.484375 -5.78125 L 4.484375 -4.15625 C 4.484375 -3.238281 4.34375 -2.445312 4.0625 -1.78125 C 3.78125 -1.125 3.390625 -0.609375 2.890625 -0.234375 C 2.390625 0.140625 1.820312 0.363281 1.1875 0.4375 L 1.1875 -14.515625 C 1.1875 -14.804688 1.332031 -14.953125 1.625 -14.953125 L 4.046875 -14.953125 C 4.097656 -14.953125 4.132812 -14.953125 4.15625 -14.953125 L 6.15625 -14.953125 C 7.457031 -14.953125 8.503906 -14.757812 9.296875 -14.375 C 10.085938 -14 10.660156 -13.460938 11.015625 -12.765625 C 11.367188 -12.066406 11.546875 -11.238281 11.546875 -10.28125 C 11.546875 -9.40625 11.382812 -8.640625 11.0625 -7.984375 C 10.738281 -7.328125 10.21875 -6.8125 9.5 -6.4375 C 8.78125 -6.0625 7.832031 -5.847656 6.65625 -5.796875 C 7.425781 -5.609375 8.164062 -5.265625 8.875 -4.765625 C 9.59375 -4.273438 10.265625 -3.597656 10.890625 -2.734375 Z M 8.25 -10.15625 C 8.25 -10.550781 8.1875 -10.867188 8.0625 -11.109375 C 7.945312 -11.359375 7.789062 -11.550781 7.59375 -11.6875 C 7.40625 -11.820312 7.203125 -11.914062 6.984375 -11.96875 C 6.765625 -12.03125 6.550781 -12.066406 6.34375 -12.078125 C 6.132812 -12.085938 5.960938 -12.09375 5.828125 -12.09375 L 4.484375 -12.09375 L 4.484375 -8.15625 L 5.828125 -8.15625 C 5.960938 -8.15625 6.128906 -8.160156 6.328125 -8.171875 C 6.535156 -8.191406 6.75 -8.234375 6.96875 -8.296875 C 7.1875 -8.359375 7.394531 -8.457031 7.59375 -8.59375 C 7.789062 -8.738281 7.945312 -8.9375 8.0625 -9.1875 C 8.1875 -9.4375 8.25 -9.757812 8.25 -10.15625 Z M 8.25 -10.15625 "/></g></g></g><g fill="#be123d" fill-opacity="1"><g transform="translate(27.679334, 60.699991)"><g><path d="M 6.25 -10.046875 C 6.988281 -10.046875 7.679688 -9.9375 8.328125 -9.71875 C 8.972656 -9.5 9.539062 -9.175781 10.03125 -8.75 C 10.53125 -8.332031 10.914062 -7.8125 11.1875 -7.1875 C 11.46875 -6.570312 11.609375 -5.863281 11.609375 -5.0625 L 11.609375 -4.65625 C 11.609375 -4.363281 11.460938 -4.21875 11.171875 -4.21875 L 4.09375 -4.21875 C 4.132812 -3.550781 4.335938 -3.015625 4.703125 -2.609375 C 5.078125 -2.203125 5.570312 -2 6.1875 -2 C 6.664062 -2 7.0625 -2.097656 7.375 -2.296875 C 7.695312 -2.492188 7.921875 -2.738281 8.046875 -3.03125 C 8.109375 -3.15625 8.175781 -3.25 8.25 -3.3125 C 8.320312 -3.375 8.414062 -3.40625 8.53125 -3.40625 L 10.984375 -3.40625 C 11.128906 -3.40625 11.238281 -3.359375 11.3125 -3.265625 C 11.394531 -3.179688 11.410156 -3.0625 11.359375 -2.90625 C 11.097656 -2.164062 10.71875 -1.554688 10.21875 -1.078125 C 9.726562 -0.597656 9.144531 -0.238281 8.46875 0 C 7.789062 0.238281 7.050781 0.359375 6.25 0.359375 C 5.414062 0.359375 4.648438 0.238281 3.953125 0 C 3.265625 -0.238281 2.671875 -0.582031 2.171875 -1.03125 C 1.671875 -1.488281 1.28125 -2.035156 1 -2.671875 C 0.726562 -3.316406 0.59375 -4.039062 0.59375 -4.84375 C 0.59375 -5.632812 0.734375 -6.347656 1.015625 -6.984375 C 1.296875 -7.628906 1.6875 -8.175781 2.1875 -8.625 C 2.695312 -9.082031 3.296875 -9.429688 3.984375 -9.671875 C 4.679688 -9.921875 5.4375 -10.046875 6.25 -10.046875 Z M 4.140625 -6 L 8.125 -6 C 8.09375 -6.53125 7.898438 -6.960938 7.546875 -7.296875 C 7.191406 -7.640625 6.722656 -7.8125 6.140625 -7.8125 C 5.523438 -7.8125 5.0625 -7.640625 4.75 -7.296875 C 4.4375 -6.960938 4.234375 -6.53125 4.140625 -6 Z M 4.140625 -6 "/></g></g></g><g fill="#be123d" fill-opacity="1"><g transform="translate(39.931252, 60.699991)"><g><path d="M 9.359375 -8.125 C 9.890625 -9.1875 10.800781 -9.785156 12.09375 -9.921875 L 12.09375 0.21875 C 10.800781 0.0820312 9.890625 -0.515625 9.359375 -1.578125 C 8.929688 -0.984375 8.382812 -0.507812 7.71875 -0.15625 C 7.050781 0.1875 6.304688 0.359375 5.484375 0.359375 C 4.765625 0.359375 4.109375 0.234375 3.515625 -0.015625 C 2.921875 -0.273438 2.410156 -0.632812 1.984375 -1.09375 C 1.554688 -1.5625 1.222656 -2.113281 0.984375 -2.75 C 0.753906 -3.382812 0.640625 -4.085938 0.640625 -4.859375 C 0.640625 -5.617188 0.753906 -6.316406 0.984375 -6.953125 C 1.222656 -7.585938 1.554688 -8.132812 1.984375 -8.59375 C 2.410156 -9.0625 2.921875 -9.421875 3.515625 -9.671875 C 4.109375 -9.921875 4.765625 -10.046875 5.484375 -10.046875 C 6.304688 -10.046875 7.050781 -9.875 7.71875 -9.53125 C 8.382812 -9.195312 8.929688 -8.726562 9.359375 -8.125 Z M 6.484375 -2.28125 C 6.929688 -2.28125 7.328125 -2.390625 7.671875 -2.609375 C 8.023438 -2.828125 8.300781 -3.128906 8.5 -3.515625 C 8.695312 -3.898438 8.796875 -4.34375 8.796875 -4.84375 C 8.796875 -5.34375 8.695312 -5.785156 8.5 -6.171875 C 8.300781 -6.554688 8.023438 -6.851562 7.671875 -7.0625 C 7.328125 -7.28125 6.929688 -7.390625 6.484375 -7.390625 C 6.035156 -7.390625 5.640625 -7.28125 5.296875 -7.0625 C 4.953125 -6.851562 4.679688 -6.554688 4.484375 -6.171875 C 4.285156 -5.785156 4.1875 -5.34375 4.1875 -4.84375 C 4.1875 -4.34375 4.285156 -3.898438 4.484375 -3.515625 C 4.679688 -3.128906 4.953125 -2.828125 5.296875 -2.609375 C 5.640625 -2.390625 6.035156 -2.28125 6.484375 -2.28125 Z M 6.484375 -2.28125 "/></g></g></g><g fill="#be123d" fill-opacity="1"><g transform="translate(53.107005, 60.699991)"><g><path d="M 8.796875 -8.78125 L 8.796875 -16.5 C 9.867188 -16.28125 10.6875 -15.8125 11.25 -15.09375 C 11.8125 -14.382812 12.09375 -13.457031 12.09375 -12.3125 L 12.09375 0.21875 C 10.75 0.21875 9.804688 -0.34375 9.265625 -1.46875 C 8.847656 -0.894531 8.3125 -0.445312 7.65625 -0.125 C 7.007812 0.195312 6.285156 0.359375 5.484375 0.359375 C 4.765625 0.359375 4.109375 0.234375 3.515625 -0.015625 C 2.921875 -0.273438 2.410156 -0.632812 1.984375 -1.09375 C 1.554688 -1.5625 1.222656 -2.113281 0.984375 -2.75 C 0.753906 -3.382812 0.640625 -4.085938 0.640625 -4.859375 C 0.640625 -5.617188 0.753906 -6.316406 0.984375 -6.953125 C 1.222656 -7.585938 1.554688 -8.132812 1.984375 -8.59375 C 2.410156 -9.0625 2.921875 -9.421875 3.515625 -9.671875 C 4.109375 -9.921875 4.765625 -10.046875 5.484375 -10.046875 C 6.148438 -10.046875 6.765625 -9.9375 7.328125 -9.71875 C 7.890625 -9.5 8.378906 -9.1875 8.796875 -8.78125 Z M 6.484375 -2.28125 C 6.929688 -2.28125 7.328125 -2.390625 7.671875 -2.609375 C 8.023438 -2.828125 8.300781 -3.128906 8.5 -3.515625 C 8.695312 -3.898438 8.796875 -4.34375 8.796875 -4.84375 C 8.796875 -5.34375 8.695312 -5.785156 8.5 -6.171875 C 8.300781 -6.554688 8.023438 -6.851562 7.671875 -7.0625 C 7.328125 -7.28125 6.929688 -7.390625 6.484375 -7.390625 C 6.035156 -7.390625 5.640625 -7.28125 5.296875 -7.0625 C 4.953125 -6.851562 4.679688 -6.554688 4.484375 -6.171875 C 4.285156 -5.785156 4.1875 -5.34375 4.1875 -4.84375 C 4.1875 -4.34375 4.285156 -3.898438 4.484375 -3.515625 C 4.679688 -3.128906 4.953125 -2.828125 5.296875 -2.609375 C 5.640625 -2.390625 6.035156 -2.28125 6.484375 -2.28125 Z M 6.484375 -2.28125 "/></g></g></g><g fill="#be123d" fill-opacity="1"><g transform="translate(66.282759, 60.699991)"><g><path d="M 2.140625 5.5 L 4.046875 0.703125 L 0.28125 -9.203125 C 0.226562 -9.347656 0.234375 -9.46875 0.296875 -9.5625 C 0.359375 -9.65625 0.472656 -9.703125 0.640625 -9.703125 L 3.0625 -9.703125 C 3.3125 -9.703125 3.476562 -9.582031 3.5625 -9.34375 L 5.71875 -2.765625 L 6.90625 -6.359375 C 7.320312 -7.578125 7.90625 -8.472656 8.65625 -9.046875 C 9.414062 -9.628906 10.359375 -9.921875 11.484375 -9.921875 L 6.890625 2.03125 C 6.421875 3.21875 5.804688 4.09375 5.046875 4.65625 C 4.285156 5.21875 3.316406 5.5 2.140625 5.5 Z M 2.140625 5.5 "/></g></g></g><g fill="#000000" fill-opacity="1"><g transform="translate(80.208184, 60.699991)"><g><path d="M 10.890625 -2.734375 L 12.453125 -0.53125 C 12.515625 -0.445312 12.546875 -0.363281 12.546875 -0.28125 C 12.546875 -0.09375 12.421875 0 12.171875 0 L 9.046875 0 C 8.835938 0 8.660156 -0.09375 8.515625 -0.28125 L 4.640625 -5.78125 L 4.484375 -5.78125 L 4.484375 -4.15625 C 4.484375 -3.238281 4.34375 -2.445312 4.0625 -1.78125 C 3.78125 -1.125 3.390625 -0.609375 2.890625 -0.234375 C 2.390625 0.140625 1.820312 0.363281 1.1875 0.4375 L 1.1875 -14.515625 C 1.1875 -14.804688 1.332031 -14.953125 1.625 -14.953125 L 4.046875 -14.953125 C 4.097656 -14.953125 4.132812 -14.953125 4.15625 -14.953125 L 6.15625 -14.953125 C 7.457031 -14.953125 8.503906 -14.757812 9.296875 -14.375 C 10.085938 -14 10.660156 -13.460938 11.015625 -12.765625 C 11.367188 -12.066406 11.546875 -11.238281 11.546875 -10.28125 C 11.546875 -9.40625 11.382812 -8.640625 11.0625 -7.984375 C 10.738281 -7.328125 10.21875 -6.8125 9.5 -6.4375 C 8.78125 -6.0625 7.832031 -5.847656 6.65625 -5.796875 C 7.425781 -5.609375 8.164062 -5.265625 8.875 -4.765625 C 9.59375 -4.273438 10.265625 -3.597656 10.890625 -2.734375 Z M 8.25 -10.15625 C 8.25 -10.550781 8.1875 -10.867188 8.0625 -11.109375 C 7.945312 -11.359375 7.789062 -11.550781 7.59375 -11.6875 C 7.40625 -11.820312 7.203125 -11.914062 6.984375 -11.96875 C 6.765625 -12.03125 6.550781 -12.066406 6.34375 -12.078125 C 6.132812 -12.085938 5.960938 -12.09375 5.828125 -12.09375 L 4.484375 -12.09375 L 4.484375 -8.15625 L 5.828125 -8.15625 C 5.960938 -8.15625 6.128906 -8.160156 6.328125 -8.171875 C 6.535156 -8.191406 6.75 -8.234375 6.96875 -8.296875 C 7.1875 -8.359375 7.394531 -8.457031 7.59375 -8.59375 C 7.789062 -8.738281 7.945312 -8.9375 8.0625 -9.1875 C 8.1875 -9.4375 8.25 -9.757812 8.25 -10.15625 Z M 8.25 -10.15625 "/></g></g></g><g fill="#000000" fill-opacity="1"><g transform="translate(92.900024, 60.699991)"><g><path d="M 2.546875 -11.609375 C 2.148438 -11.609375 1.765625 -11.675781 1.390625 -11.8125 C 1.023438 -11.945312 0.722656 -12.144531 0.484375 -12.40625 C 0.242188 -12.664062 0.125 -12.992188 0.125 -13.390625 C 0.125 -13.785156 0.242188 -14.113281 0.484375 -14.375 C 0.722656 -14.632812 1.023438 -14.832031 1.390625 -14.96875 C 1.765625 -15.113281 2.148438 -15.1875 2.546875 -15.1875 C 2.941406 -15.1875 3.320312 -15.113281 3.6875 -14.96875 C 4.0625 -14.832031 4.367188 -14.632812 4.609375 -14.375 C 4.847656 -14.113281 4.96875 -13.785156 4.96875 -13.390625 C 4.96875 -12.992188 4.847656 -12.664062 4.609375 -12.40625 C 4.367188 -12.144531 4.0625 -11.945312 3.6875 -11.8125 C 3.320312 -11.675781 2.941406 -11.609375 2.546875 -11.609375 Z M 3.921875 0 L 1.5 0 C 1.207031 0 1.0625 -0.144531 1.0625 -0.4375 L 1.0625 -9.921875 C 2.125 -9.703125 2.9375 -9.234375 3.5 -8.515625 C 4.070312 -7.804688 4.359375 -6.878906 4.359375 -5.734375 L 4.359375 -0.4375 C 4.359375 -0.144531 4.210938 0 3.921875 0 Z M 3.921875 0 "/></g></g></g><g fill="#000000" fill-opacity="1"><g transform="translate(98.179126, 60.699991)"><g><path d="M 8.796875 -8.78125 L 8.796875 -16.5 C 9.867188 -16.28125 10.6875 -15.8125 11.25 -15.09375 C 11.8125 -14.382812 12.09375 -13.457031 12.09375 -12.3125 L 12.09375 0.21875 C 10.75 0.21875 9.804688 -0.34375 9.265625 -1.46875 C 8.847656 -0.894531 8.3125 -0.445312 7.65625 -0.125 C 7.007812 0.195312 6.285156 0.359375 5.484375 0.359375 C 4.765625 0.359375 4.109375 0.234375 3.515625 -0.015625 C 2.921875 -0.273438 2.410156 -0.632812 1.984375 -1.09375 C 1.554688 -1.5625 1.222656 -2.113281 0.984375 -2.75 C 0.753906 -3.382812 0.640625 -4.085938 0.640625 -4.859375 C 0.640625 -5.617188 0.753906 -6.316406 0.984375 -6.953125 C 1.222656 -7.585938 1.554688 -8.132812 1.984375 -8.59375 C 2.410156 -9.0625 2.921875 -9.421875 3.515625 -9.671875 C 4.109375 -9.921875 4.765625 -10.046875 5.484375 -10.046875 C 6.148438 -10.046875 6.765625 -9.9375 7.328125 -9.71875 C 7.890625 -9.5 8.378906 -9.1875 8.796875 -8.78125 Z M 6.484375 -2.28125 C 6.929688 -2.28125 7.328125 -2.390625 7.671875 -2.609375 C 8.023438 -2.828125 8.300781 -3.128906 8.5 -3.515625 C 8.695312 -3.898438 8.796875 -4.34375 8.796875 -4.84375 C 8.796875 -5.34375 8.695312 -5.785156 8.5 -6.171875 C 8.300781 -6.554688 8.023438 -6.851562 7.671875 -7.0625 C 7.328125 -7.28125 6.929688 -7.390625 6.484375 -7.390625 C 6.035156 -7.390625 5.640625 -7.28125 5.296875 -7.0625 C 4.953125 -6.851562 4.679688 -6.554688 4.484375 -6.171875 C 4.285156 -5.785156 4.1875 -5.34375 4.1875 -4.84375 C 4.1875 -4.34375 4.285156 -3.898438 4.484375 -3.515625 C 4.679688 -3.128906 4.953125 -2.828125 5.296875 -2.609375 C 5.640625 -2.390625 6.035156 -2.28125 6.484375 -2.28125 Z M 6.484375 -2.28125 "/></g></g></g><g fill="#000000" fill-opacity="1"><g transform="translate(111.354879, 60.699991)"><g><path d="M 6.25 -10.046875 C 6.988281 -10.046875 7.679688 -9.9375 8.328125 -9.71875 C 8.972656 -9.5 9.539062 -9.175781 10.03125 -8.75 C 10.53125 -8.332031 10.914062 -7.8125 11.1875 -7.1875 C 11.46875 -6.570312 11.609375 -5.863281 11.609375 -5.0625 L 11.609375 -4.65625 C 11.609375 -4.363281 11.460938 -4.21875 11.171875 -4.21875 L 4.09375 -4.21875 C 4.132812 -3.550781 4.335938 -3.015625 4.703125 -2.609375 C 5.078125 -2.203125 5.570312 -2 6.1875 -2 C 6.664062 -2 7.0625 -2.097656 7.375 -2.296875 C 7.695312 -2.492188 7.921875 -2.738281 8.046875 -3.03125 C 8.109375 -3.15625 8.175781 -3.25 8.25 -3.3125 C 8.320312 -3.375 8.414062 -3.40625 8.53125 -3.40625 L 10.984375 -3.40625 C 11.128906 -3.40625 11.238281 -3.359375 11.3125 -3.265625 C 11.394531 -3.179688 11.410156 -3.0625 11.359375 -2.90625 C 11.097656 -2.164062 10.71875 -1.554688 10.21875 -1.078125 C 9.726562 -0.597656 9.144531 -0.238281 8.46875 0 C 7.789062 0.238281 7.050781 0.359375 6.25 0.359375 C 5.414062 0.359375 4.648438 0.238281 3.953125 0 C 3.265625 -0.238281 2.671875 -0.582031 2.171875 -1.03125 C 1.671875 -1.488281 1.28125 -2.035156 1 -2.671875 C 0.726562 -3.316406 0.59375 -4.039062 0.59375 -4.84375 C 0.59375 -5.632812 0.734375 -6.347656 1.015625 -6.984375 C 1.296875 -7.628906 1.6875 -8.175781 2.1875 -8.625 C 2.695312 -9.082031 3.296875 -9.429688 3.984375 -9.671875 C 4.679688 -9.921875 5.4375 -10.046875 6.25 -10.046875 Z M 4.140625 -6 L 8.125 -6 C 8.09375 -6.53125 7.898438 -6.960938 7.546875 -7.296875 C 7.191406 -7.640625 6.722656 -7.8125 6.140625 -7.8125 C 5.523438 -7.8125 5.0625 -7.640625 4.75 -7.296875 C 4.4375 -6.960938 4.234375 -6.53125 4.140625 -6 Z M 4.140625 -6 "/></g></g></g></svg>